<?xml version="1.0" encoding="UTF-8" standalone="no"?>
<!-- Created with Inkscape (http://www.inkscape.org/) -->

<svg
   version="1.1"
   id="svg2"
   width="4666.6665"
   height="4666.6665"
   viewBox="0 0 4666.6665 4666.6665"
   sodipodi:docname="lafaa logo.ai"
   xmlns:inkscape="http://www.inkscape.org/namespaces/inkscape"
   xmlns:sodipodi="http://sodipodi.sourceforge.net/DTD/sodipodi-0.dtd"
   xmlns="http://www.w3.org/2000/svg"
   xmlns:svg="http://www.w3.org/2000/svg">
  <defs
     id="defs6">
    <linearGradient
       x1="0"
       y1="0"
       x2="1"
       y2="0"
       gradientUnits="userSpaceOnUse"
       gradientTransform="matrix(951.39154,0,0,-951.39154,1100.0763,2074.1836)"
       spreadMethod="pad"
       id="linearGradient26">
      <stop
         style="stop-opacity:1;stop-color:#ff4191"
         offset="0"
         id="stop22" />
      <stop
         style="stop-opacity:1;stop-color:#e90074"
         offset="1"
         id="stop24" />
    </linearGradient>
    <linearGradient
       x1="0"
       y1="0"
       x2="1"
       y2="0"
       gradientUnits="userSpaceOnUse"
       gradientTransform="matrix(876.995,0,0,-876.995,1280.2554,2551.7214)"
       spreadMethod="pad"
       id="linearGradient46">
      <stop
         style="stop-opacity:1;stop-color:#ff4191"
         offset="0"
         id="stop42" />
      <stop
         style="stop-opacity:1;stop-color:#e90074"
         offset="1"
         id="stop44" />
    </linearGradient>
    <linearGradient
       x1="0"
       y1="0"
       x2="1"
       y2="0"
       gradientUnits="userSpaceOnUse"
       gradientTransform="matrix(542.04181,0,0,-542.04181,1325.3722,1793.0792)"
       spreadMethod="pad"
       id="linearGradient66">
      <stop
         style="stop-opacity:1;stop-color:#ff4191"
         offset="0"
         id="stop62" />
      <stop
         style="stop-opacity:1;stop-color:#e90074"
         offset="1"
         id="stop64" />
    </linearGradient>
    <linearGradient
       x1="0"
       y1="0"
       x2="1"
       y2="0"
       gradientUnits="userSpaceOnUse"
       gradientTransform="matrix(1164.1511,0,0,-1164.1511,1227.7941,1671.7323)"
       spreadMethod="pad"
       id="linearGradient86">
      <stop
         style="stop-opacity:1;stop-color:#ff4191"
         offset="0"
         id="stop82" />
      <stop
         style="stop-opacity:1;stop-color:#e90074"
         offset="1"
         id="stop84" />
    </linearGradient>
    <linearGradient
       x1="0"
       y1="0"
       x2="1"
       y2="0"
       gradientUnits="userSpaceOnUse"
       gradientTransform="matrix(205.17503,0,0,-205.17503,1904.3789,1795.8639)"
       spreadMethod="pad"
       id="linearGradient106">
      <stop
         style="stop-opacity:1;stop-color:#ff4191"
         offset="0"
         id="stop102" />
      <stop
         style="stop-opacity:1;stop-color:#e90074"
         offset="1"
         id="stop104" />
    </linearGradient>
    <linearGradient
       x1="0"
       y1="0"
       x2="1"
       y2="0"
       gradientUnits="userSpaceOnUse"
       gradientTransform="matrix(108.94963,0,0,-108.94963,1350.2162,1782.3392)"
       spreadMethod="pad"
       id="linearGradient126">
      <stop
         style="stop-opacity:1;stop-color:#ff4191"
         offset="0"
         id="stop122" />
      <stop
         style="stop-opacity:1;stop-color:#e90074"
         offset="1"
         id="stop124" />
    </linearGradient>
    <linearGradient
       x1="0"
       y1="0"
       x2="1"
       y2="0"
       gradientUnits="userSpaceOnUse"
       gradientTransform="matrix(191.53113,0,0,-191.53113,1783.6409,2531.6155)"
       spreadMethod="pad"
       id="linearGradient146">
      <stop
         style="stop-opacity:1;stop-color:#ff4191"
         offset="0"
         id="stop142" />
      <stop
         style="stop-opacity:1;stop-color:#e90074"
         offset="1"
         id="stop144" />
    </linearGradient>
    <linearGradient
       x1="0"
       y1="0"
       x2="1"
       y2="0"
       gradientUnits="userSpaceOnUse"
       gradientTransform="matrix(211.04984,0,0,-211.04984,1765.4805,2380.0027)"
       spreadMethod="pad"
       id="linearGradient166">
      <stop
         style="stop-opacity:1;stop-color:#ff4191"
         offset="0"
         id="stop162" />
      <stop
         style="stop-opacity:1;stop-color:#e90074"
         offset="1"
         id="stop164" />
    </linearGradient>
    <linearGradient
       x1="0"
       y1="0"
       x2="1"
       y2="0"
       gradientUnits="userSpaceOnUse"
       gradientTransform="matrix(180.60692,0,0,-180.60692,1453.0365,2556.8613)"
       spreadMethod="pad"
       id="linearGradient186">
      <stop
         style="stop-opacity:1;stop-color:#ff4191"
         offset="0"
         id="stop182" />
      <stop
         style="stop-opacity:1;stop-color:#e90074"
         offset="1"
         id="stop184" />
    </linearGradient>
    <linearGradient
       x1="0"
       y1="0"
       x2="1"
       y2="0"
       gradientUnits="userSpaceOnUse"
       gradientTransform="matrix(206.06104,0,0,-206.06104,1396.3839,2437.4153)"
       spreadMethod="pad"
       id="linearGradient206">
      <stop
         style="stop-opacity:1;stop-color:#ff4191"
         offset="0"
         id="stop202" />
      <stop
         style="stop-opacity:1;stop-color:#e90074"
         offset="1"
         id="stop204" />
    </linearGradient>
    <clipPath
       clipPathUnits="userSpaceOnUse"
       id="clipPath216">
      <path
         d="M 0,3500 H 3500 V 0 H 0 Z"
         id="path214" />
    </clipPath>
  </defs>
  <sodipodi:namedview
     id="namedview4"
     pagecolor="#ffffff"
     bordercolor="#000000"
     borderopacity="0.25"
     inkscape:showpageshadow="2"
     inkscape:pageopacity="0.0"
     inkscape:pagecheckerboard="0"
     inkscape:deskcolor="#d1d1d1" />
  <g
     id="g8"
     inkscape:groupmode="layer"
     inkscape:label="lafaa logo"
     transform="matrix(1.3333333,0,0,-1.3333333,0,4666.6667)">
    <g
       id="g10">
      <g
         id="g12">
        <g
           id="g18">
          <g
             id="g20">
            <path
               d="m 1478.821,2718.795 c -58.487,-54.864 -112.454,-136.879 -143.615,-257.336 v 0 c -22.012,-85.087 -43.651,-365.368 81.598,-488.381 v 0 c -0.398,0.518 -124.635,186.789 -48.809,479.885 v 0 c 29.325,113.356 79.646,190.1 134.056,241.142 v 0 c 84.649,79.405 178.15,96.484 216.853,92.421 v 0 c 39.658,-4.162 130.635,-24.781 201.43,-114.39 v 0 c 44.157,-55.892 80.516,-138.666 92.15,-261.097 v 0 c 15.343,-161.479 -4.563,-262.796 -49.846,-337.879 v 0 c -45.3,-75.108 -117.22,-125.701 -204.972,-184.447 v 0 c -70.684,-47.319 -151.938,-88.576 -229.9,-128.16 v 0 c -119.164,-60.504 -230.79,-117.182 -290.624,-188.233 v 0 c -78.636,-93.38 -104.043,-137.858 -137.066,-244.856 v 0 l 47.05,44.859 c 0.554,0.529 187.374,190.715 293.013,257.94 v 0 c -101.016,-35.444 -198.687,-125.408 -241.342,-163.987 v 0 c 15.867,23.526 36.782,51.679 64.231,84.274 v 0 c 55.269,65.63 163.966,120.821 280.003,179.737 v 0 c 78.8,40.009 160.927,81.709 233.484,130.283 v 0 c 91.326,61.138 166.272,113.953 215.194,195.068 v 0 c 48.938,81.143 70.618,188.882 54.493,358.586 v 0 c -12.335,129.818 -51.569,218.448 -99.318,278.886 v 0 c -78.631,99.527 -180.217,122.483 -224.53,127.134 v 0 c -4.07,0.428 -8.656,0.659 -13.71,0.659 v 0 c -49.93,0 -145.062,-22.596 -229.823,-102.108"
               style="fill:url(#linearGradient26);stroke:none"
               id="path28" />
          </g>
        </g>
      </g>
    </g>
    <g
       id="g30">
      <g
         id="g32">
        <g
           id="g38">
          <g
             id="g40">
            <path
               d="m 1586.851,3013.483 c -24.99,-12.419 -50.182,-28.551 -75.399,-48.906 v 0 c -124.894,-100.818 -251.729,-322.614 -228.403,-547.452 v 0 c -0.02,0.937 7.43,325.515 249.643,521.036 v 0 c 23.27,18.785 46.371,33.599 69.159,44.922 v 0 c 84.951,42.214 166.535,36.211 236.919,7.224 v 0 c 71.543,-29.465 131.853,-82.509 172.855,-133.303 v 0 c 18.71,-23.179 33.286,-45.736 42.978,-65.241 v 0 c 35.645,-71.729 84.11,-206.427 63.935,-368.355 v 0 c -6.079,-48.785 -18.409,-100.064 -39.215,-152.866 v 0 c 23.588,104.04 37.454,372.155 -120.167,533.774 v 0 c 231.454,-404.313 6.002,-727.163 5.361,-728.103 v 0 l 27.213,-20.178 c 101.194,126.2 146.53,250.913 160.526,363.259 v 0 c 21.223,170.329 -29.759,312.018 -67.254,387.469 v 0 c -10.747,21.626 -26.686,46.365 -46.96,71.481 v 0 c -43.98,54.483 -108.934,111.489 -186.395,143.391 v 0 c -38.948,16.04 -80.966,25.775 -125.017,25.773 v 0 c -44.866,0 -91.839,-10.102 -139.779,-33.925"
               style="fill:url(#linearGradient46);stroke:none"
               id="path48" />
          </g>
        </g>
      </g>
    </g>
    <g
       id="g50">
      <g
         id="g52">
        <g
           id="g58">
          <g
             id="g60">
            <path
               d="m 1629.532,1855.88 c -54.026,-13.744 -116.388,-30.862 -172.111,-62.039 v 0 l 0.017,-0.028 c -57.115,-31.966 -106.561,-78.244 -132.066,-149.672 v 0 l 31.992,-11.417 c 22.316,62.497 66.013,103.221 116.585,131.515 v 0 h 0.066 c 51.983,29.086 111.882,45.492 163.879,58.72 v 0 c 108.401,27.579 229.169,101.324 229.52,101.537 v 0 l -17.656,28.938 c -0.337,-0.205 -116.579,-71.185 -220.226,-97.554"
               style="fill:url(#linearGradient66);stroke:none"
               id="path68" />
          </g>
        </g>
      </g>
    </g>
    <g
       id="g70">
      <g
         id="g72">
        <g
           id="g78">
          <g
             id="g80">
            <path
               d="m 1963.029,1983.06 c 3.308,-31.433 2.926,-51.731 -8.636,-67.696 v 0 c -12.77,-17.634 -39.559,-33.486 -88.933,-55.607 v 0 c -52.712,-23.616 -126.7,-58.298 -210.059,-109.94 v 0 c -197.573,-122.399 -330.233,-262.552 -427.607,-408.011 v 0 c 188.55,175.202 388.112,370.226 664.609,385.54 v 0 c 119.778,6.633 229.409,-25.945 311.849,-90.137 v 0 c 54.824,-42.689 97.705,-99.488 123.607,-168.135 v 0 c -59.822,77.944 -216.115,228.364 -412.654,188.587 v 0 c 254.724,-15.294 401.328,-168.571 476.74,-388.616 v 0 c -2.012,163.435 -25.534,284.809 -166.852,394.845 v 0 c -88.906,69.228 -206.526,104.396 -334.548,97.306 v 0 c -100.288,-5.555 -200.718,-42.515 -284.982,-84.724 v 0 c 23.045,16.121 45.665,30.932 67.626,44.538 v 0 c 81.578,50.537 154.265,84.605 206.078,107.818 v 0 c 55.15,24.709 85.872,43.517 102.605,66.623 v 0 c 17.942,24.779 19.059,51.314 14.875,91.06 v 0 c -6.959,66.104 -3.169,72.359 -3.158,72.378 v 0 l -30.135,15.531 c -0.022,-0.044 -8.452,-15.104 -0.425,-91.36"
               style="fill:url(#linearGradient86);stroke:none"
               id="path88" />
          </g>
        </g>
      </g>
    </g>
    <g
       id="g90">
      <g
         id="g92">
        <g
           id="g98">
          <g
             id="g100">
            <path
               d="m 1904.379,1878.288 12.213,-31.592 c 0.17,0.065 58.919,23.244 83.283,0.864 v 0 c 8.177,-7.512 10.746,-18.675 13.818,-32.037 v 0 c 6.828,-29.678 15.541,-67.554 74.887,-114.339 v 0 l 20.974,26.682 c -49.959,39.386 -57.163,70.693 -62.806,95.224 v 0 c -4.364,18.973 -8.01,34.823 -23.907,49.427 v 0 c -14.937,13.721 -35.16,18.028 -54.672,18.027 v 0 c -32.836,0 -63.649,-12.2 -63.79,-12.256"
               style="fill:url(#linearGradient106);stroke:none"
               id="path108" />
          </g>
        </g>
      </g>
    </g>
    <g
       id="g110">
      <g
         id="g112">
        <g
           id="g118">
          <g
             id="g120">
            <path
               d="m 1350.216,1695.554 33.521,8.226 5.994,23.479 c 0,0 -16.483,73.931 69.435,141.866 v 0 c 0,0 -107.503,-21.451 -108.95,-173.571"
               style="fill:url(#linearGradient126);stroke:none"
               id="path128" />
          </g>
        </g>
      </g>
    </g>
    <g
       id="g130">
      <g
         id="g132">
        <g
           id="g138">
          <g
             id="g140">
            <path
               d="m 1786.973,2532.496 c -7.743,-8.741 -0.375,-23.102 5.744,-23.102 v 0 c 6.119,0 25.102,13.237 75.056,23.478 v 0 c 49.953,10.24 107.399,-15.987 107.399,-15.987 v 0 c -31.558,28.232 -68.66,36.954 -101.578,36.953 v 0 c -44.985,0 -82.151,-16.294 -86.621,-21.342"
               style="fill:url(#linearGradient146);stroke:none"
               id="path148" />
          </g>
        </g>
      </g>
    </g>
    <g
       id="g150">
      <g
         id="g152">
        <g
           id="g158">
          <g
             id="g160">
            <path
               d="m 1765.48,2400.747 c 44.333,1.744 38.464,-20.235 70.059,-29.476 v 0 c 19.414,-5.679 39.205,-5.226 58.417,-2.267 v 0 h 0.01 c 36.326,-2.142 58.211,-18.213 58.211,-18.213 v 0 c -3.491,12.468 -12.831,20.919 -21.31,26.259 v 0 c 28.477,6.741 45.667,-5.154 45.667,-5.154 v 0 c -3.748,15.736 -25.475,35.719 -60.567,25.354 v 0 c -35.093,-10.365 -61.068,-10.49 -95.909,5.369 v 0 c -10.767,4.902 -20.091,6.595 -27.836,6.595 v 0 c -17.317,0 -26.739,-8.467 -26.739,-8.467"
               style="fill:url(#linearGradient166);stroke:none"
               id="path168" />
          </g>
        </g>
      </g>
    </g>
    <g
       id="g170">
      <g
         id="g172">
        <g
           id="g178">
          <g
             id="g180">
            <path
               d="m 1453.036,2591.322 c 0,0 63.109,2.289 105.36,-26.262 v 0 c 42.25,-28.55 54.735,-48.035 60.39,-50.374 v 0 c 5.656,-2.338 17.951,8.119 14.136,19.156 v 0 c -3.164,9.155 -59.803,65.519 -132.982,65.524 v 0 c -15.045,0 -30.78,-2.38 -46.904,-8.044"
               style="fill:url(#linearGradient186);stroke:none"
               id="path188" />
          </g>
        </g>
      </g>
    </g>
    <g
       id="g190">
      <g
         id="g192">
        <g
           id="g198">
          <g
             id="g200">
            <path
               d="m 1396.384,2457.854 c 0,0 20.429,4.424 44.171,-12.686 v 0 c -9.876,-1.695 -21.737,-5.937 -29.728,-16.125 v 0 c 0,0 26.367,6.49 60.754,-5.41 v 0 h 0.01 c 16.623,-10.076 34.74,-18.056 54.851,-20.225 v 0 c 12.706,-1.372 20.928,1.189 28.591,3.749 v 0 c 12.073,4.035 22.759,8.07 47.415,-3.279 v 0 c 0,0 -11.46,23.928 -49.719,22.582 v 0 c -38.257,-1.342 -62.214,8.697 -90.684,31.685 v 0 c -12.283,9.917 -24.43,13.664 -35.028,13.665 v 0 c -13.965,0 -25.243,-6.501 -30.63,-13.954"
               style="fill:url(#linearGradient206);stroke:none"
               id="path208" />
          </g>
        </g>
      </g>
    </g>
    <g
       id="g210">
      <g
         id="g212"
         clip-path="url(#clipPath216)">
        <g
           id="g218"
           transform="translate(1422.3247,802.0128)">
          <path
             d="m 0,0 c 7.246,-20.136 13.481,-36.638 18.721,-49.518 5.227,-12.89 10.263,-22.946 15.096,-30.192 4.83,-7.25 9.86,-12.286 15.097,-15.1 5.227,-2.82 11.475,-4.226 18.721,-4.226 v -1.812 H -48.917 v 1.812 c 7.249,0 12.88,1.708 16.909,5.132 4.022,3.418 6.041,9.456 6.041,18.117 0,8.651 -1.812,20.323 -5.437,35.026 -3.622,14.692 -9.265,33.108 -16.909,55.256 l -88.165,265.706 c -0.814,2.417 -2.416,3.625 -4.833,3.625 -2.416,0 -4.028,-1.208 -4.829,-3.625 l -35.63,-105.073 c -2.019,-4.833 -3.726,-9.663 -5.132,-14.496 -1.418,-4.829 -2.925,-9.462 -4.53,-13.888 20.533,-2.019 40.055,-7.955 58.576,-17.815 18.514,-9.869 36.838,-23.051 54.955,-39.553 l -1.209,-1.208 c -29.798,18.511 -62,27.78 -96.622,27.78 -8.454,0 -16.909,-0.605 -25.363,-1.813 -10.066,-37.045 -12.483,-63.511 -7.246,-79.411 5.227,-15.908 19.929,-23.853 44.084,-23.853 V 9.058 h -83.335 l 35.626,102.661 c -18.521,-4.436 -35.836,-12.286 -51.931,-23.551 l -17.513,44.084 c 29.786,11.265 57.162,16.305 82.127,15.096 l 59.181,168.483 c 1.605,4.426 4.018,7.643 7.246,9.663 3.217,2.009 6.642,3.02 10.267,3.02 3.624,0 7.039,-1.011 10.266,-3.02 3.218,-2.02 5.634,-5.237 7.246,-9.663 z m -260.275,-94.81 c 17.709,0 32.704,0.699 44.99,2.114 12.276,1.406 22.644,3.822 31.099,7.246 8.454,3.418 15.598,8.248 21.439,14.496 5.831,6.235 11.17,14.19 16.003,23.853 h 1.812 v -53.747 h -285.034 v 1.812 c 7.643,0 13.888,1.104 18.721,3.32 4.829,2.209 8.651,6.238 11.472,12.079 2.813,5.831 4.832,13.983 6.041,24.457 1.208,10.463 1.812,23.948 1.812,40.459 v 257.859 c 0,16.505 -0.604,29.989 -1.812,40.462 -1.209,10.464 -3.228,18.616 -6.041,24.457 -2.821,5.831 -6.643,9.86 -11.472,12.076 -4.833,2.21 -11.078,3.323 -18.721,3.323 v 1.812 h 117.152 v -1.812 c -7.246,0 -13.284,-1.012 -18.117,-3.021 -4.829,-2.019 -8.661,-5.64 -11.471,-10.867 -2.824,-5.24 -4.833,-12.588 -6.041,-22.044 -1.205,-9.462 -2.02,-21.436 -2.414,-35.932 V -94.81 Z"
             style="fill:#000000;fill-opacity:1;fill-rule:nonzero;stroke:none"
             id="path220" />
        </g>
        <g
           id="g222"
           transform="translate(1675.9548,1123.2809)">
          <path
             d="m 0,0 h 115.343 v -53.747 h -1.812 c -4.83,9.663 -10.172,17.608 -16.003,23.853 -5.84,6.238 -12.981,11.068 -21.436,14.492 -8.454,3.418 -18.826,5.835 -31.102,7.25 C 32.704,-6.747 17.713,-6.041 0,-6.041 H -90.581 V -225.854 H 45.896 l -15.7,-47.101 h -1.812 c -6.849,14.085 -17.513,24.457 -32.005,31.099 -14.493,6.642 -36.441,9.964 -65.823,9.964 h -21.137 v -116.551 c 0.397,-14.493 1.208,-26.476 2.416,-35.929 1.208,-9.465 3.218,-16.817 6.038,-22.044 2.81,-5.236 6.642,-8.858 11.475,-10.87 4.83,-2.02 10.867,-3.018 18.117,-3.018 v -1.812 h -117.156 v 1.812 c 7.644,0 13.891,1.104 18.721,3.32 4.833,2.209 8.652,6.343 11.475,12.381 2.811,6.038 4.83,14.285 6.038,24.759 1.208,10.463 1.812,23.948 1.812,40.459 V -82.13 c 0,16.505 -0.604,29.989 -1.812,40.462 -1.208,10.464 -3.227,18.616 -6.038,24.457 -2.823,5.831 -6.642,9.86 -11.475,12.076 -4.83,2.21 -11.077,3.323 -18.721,3.323 V 0 Z"
             style="fill:#000000;fill-opacity:1;fill-rule:nonzero;stroke:none"
             id="path224" />
        </g>
        <g
           id="g226"
           transform="translate(2058.8164,802.6169)">
          <path
             d="m 0,0 c 7.246,-20.136 13.484,-36.638 18.721,-49.518 5.227,-12.89 10.267,-23.051 15.096,-30.498 4.833,-7.453 9.86,-12.584 15.097,-15.398 5.227,-2.82 11.474,-4.226 18.721,-4.226 v -1.812 H -48.914 v 1.812 c 7.246,0 12.88,1.708 16.909,5.132 4.019,3.418 6.038,9.456 6.038,18.117 0,8.651 -1.813,20.323 -5.434,35.025 -3.625,14.693 -9.265,33.109 -16.909,55.257 l -88.168,265.706 c -0.811,2.417 -2.416,3.625 -4.829,3.625 -2.417,0 -4.032,-1.208 -4.833,-3.625 L -210.15,92.394 c 24.155,-0.404 46.497,-5.641 67.03,-15.701 20.53,-10.066 41.064,-24.155 61.597,-42.272 l -1.208,-1.208 c -14.496,8.852 -29.894,15.701 -46.199,20.534 -16.304,4.829 -32.911,7.246 -49.819,7.246 -15.307,0 -29.799,-2.019 -43.48,-6.038 -9.266,-27.78 -15.908,-51.54 -19.929,-71.26 -4.029,-19.729 -5.037,-35.731 -3.018,-48.007 2.009,-12.286 7.039,-21.239 15.097,-26.873 8.047,-5.644 19.325,-8.455 33.817,-8.455 v -1.812 h -88.168 c -0.404,0 -0.604,0.397 -0.604,1.208 l 53.142,152.178 c -12.483,-4.829 -24.361,-11.077 -35.629,-18.721 l -17.513,44.084 c 23.751,9.256 46.093,14.286 67.034,15.097 l 77.898,222.833 c 1.605,4.426 4.022,7.643 7.249,9.662 3.218,2.01 6.642,3.021 10.263,3.021 3.625,0 7.04,-1.011 10.267,-3.021 3.218,-2.019 5.634,-5.236 7.246,-9.662 z"
             style="fill:#000000;fill-opacity:1;fill-rule:nonzero;stroke:none"
             id="path228" />
        </g>
        <g
           id="g230"
           transform="translate(2432.0283,802.6169)">
          <path
             d="m 0,0 c 7.246,-20.136 13.484,-36.638 18.721,-49.518 5.227,-12.89 10.267,-23.051 15.096,-30.498 4.833,-7.453 9.86,-12.584 15.097,-15.398 5.226,-2.82 11.474,-4.226 18.721,-4.226 v -1.812 H -48.914 v 1.812 c 7.246,0 12.88,1.708 16.909,5.132 4.019,3.418 6.038,9.456 6.038,18.117 0,8.651 -1.813,20.323 -5.434,35.025 -3.625,14.693 -9.265,33.109 -16.909,55.257 l -88.168,265.706 c -0.811,2.417 -2.416,3.625 -4.829,3.625 -2.417,0 -4.032,-1.208 -4.833,-3.625 L -210.15,92.394 c 24.154,-0.404 46.497,-5.641 67.03,-15.701 20.53,-10.066 41.064,-24.155 61.597,-42.272 l -1.208,-1.208 c -14.496,8.852 -29.894,15.701 -46.198,20.534 -16.305,4.829 -32.912,7.246 -49.82,7.246 -15.307,0 -29.799,-2.019 -43.48,-6.038 -9.266,-27.78 -15.907,-51.54 -19.929,-71.26 -4.029,-19.729 -5.037,-35.731 -3.018,-48.007 2.009,-12.286 7.04,-21.239 15.096,-26.873 8.048,-5.644 19.326,-8.455 33.818,-8.455 v -1.812 h -88.168 c -0.404,0 -0.604,0.397 -0.604,1.208 l 53.142,152.178 c -12.483,-4.829 -24.361,-11.077 -35.629,-18.721 l -17.513,44.084 c 23.751,9.256 46.093,14.286 67.034,15.097 l 77.898,222.833 c 1.605,4.426 4.022,7.643 7.249,9.662 3.218,2.01 6.642,3.021 10.263,3.021 3.625,0 7.04,-1.011 10.267,-3.021 3.218,-2.019 5.634,-5.236 7.246,-9.662 z"
             style="fill:#000000;fill-opacity:1;fill-rule:nonzero;stroke:none"
             id="path232" />
        </g>
      </g>
    </g>
  </g>
</svg>
